<svg width="194" height="40" viewBox="0 0 194 40" fill="none" xmlns="http://www.w3.org/2000/svg">
<circle cx="20" cy="20" r="20" fill="#F27D82"/>
<path d="M23.7879 18.9V20.44H15.7879V18.9H23.7879Z" fill="black"/>
<circle cx="174" cy="20" r="20" fill="#F27D82"/>
<path d="M179.098 20.52H174.878V24.78H173.098V20.52H168.898V18.86H173.098V14.58H174.878V18.86H179.098V20.52Z" fill="black"/>
<path d="M91.1514 25.864C93.7434 24.088 95.8154 22.352 97.3674 20.656C98.9354 18.944 99.7194 17.36 99.7194 15.904C99.7194 15.04 99.5034 14.352 99.0714 13.84C98.6554 13.328 97.9754 13.072 97.0314 13.072C96.0554 13.072 95.3194 13.392 94.8234 14.032C94.3274 14.656 94.0474 15.552 93.9834 16.72H91.3194C91.4314 14.784 92.0234 13.304 93.0954 12.28C94.1834 11.256 95.5674 10.744 97.2474 10.744C98.8954 10.744 100.183 11.184 101.111 12.064C102.055 12.928 102.527 14.128 102.527 15.664C102.527 16.896 102.143 18.144 101.375 19.408C100.623 20.672 99.6634 21.84 98.4954 22.912C97.3274 23.968 96.1194 24.88 94.8714 25.648H102.911V27.88H91.1514V25.864Z" fill="black"/>
</svg>
