<svg width="375" height="102" viewBox="0 0 375 102" fill="none" xmlns="http://www.w3.org/2000/svg">
<g filter="url(#filter0_dd)">
<rect y="36" width="375" height="66" fill="white"/>
</g>
<path d="M36.3333 57.8333H41.3333C41.7917 57.8333 42.1667 57.4583 42.1667 57V50.3333C42.1667 49.875 41.7917 49.5 41.3333 49.5H36.3333C35.875 49.5 35.5 49.875 35.5 50.3333V57C35.5 57.4583 35.875 57.8333 36.3333 57.8333ZM36.3333 64.5H41.3333C41.7917 64.5 42.1667 64.125 42.1667 63.6667V60.3333C42.1667 59.875 41.7917 59.5 41.3333 59.5H36.3333C35.875 59.5 35.5 59.875 35.5 60.3333V63.6667C35.5 64.125 35.875 64.5 36.3333 64.5ZM44.6667 64.5H49.6667C50.125 64.5 50.5 64.125 50.5 63.6667V57C50.5 56.5417 50.125 56.1667 49.6667 56.1667H44.6667C44.2083 56.1667 43.8333 56.5417 43.8333 57V63.6667C43.8333 64.125 44.2083 64.5 44.6667 64.5ZM43.8333 50.3333V53.6667C43.8333 54.125 44.2083 54.5 44.6667 54.5H49.6667C50.125 54.5 50.5 54.125 50.5 53.6667V50.3333C50.5 49.875 50.125 49.5 49.6667 49.5H44.6667C44.2083 49.5 43.8333 49.875 43.8333 50.3333Z" fill="#C8161D"/>
<path d="M30.82 76.116V86H29.21V81.562H24.562V86H22.966V76.116H24.562V80.26H29.21V76.116H30.82ZM36.0431 78.188C36.7897 78.188 37.4617 78.3467 38.0591 78.664C38.6564 78.9813 39.1231 79.4387 39.4591 80.036C39.7951 80.6333 39.9631 81.3333 39.9631 82.136C39.9631 82.948 39.7951 83.6527 39.4591 84.25C39.1231 84.8473 38.6564 85.3047 38.0591 85.622C37.4617 85.9393 36.7897 86.098 36.0431 86.098C35.2964 86.098 34.6244 85.9393 34.0271 85.622C33.4391 85.3047 32.9724 84.8473 32.6271 84.25C32.2911 83.6433 32.1231 82.9387 32.1231 82.136C32.1231 81.3333 32.2911 80.6333 32.6271 80.036C32.9724 79.4387 33.4391 78.9813 34.0271 78.664C34.6244 78.3467 35.2964 78.188 36.0431 78.188ZM36.0431 79.574C35.6324 79.574 35.2544 79.6673 34.9091 79.854C34.5637 80.0407 34.2837 80.33 34.0691 80.722C33.8637 81.1047 33.7611 81.576 33.7611 82.136C33.7611 82.7053 33.8637 83.1813 34.0691 83.564C34.2837 83.9467 34.5637 84.2313 34.9091 84.418C35.2544 84.6047 35.6324 84.698 36.0431 84.698C36.4537 84.698 36.8317 84.6047 37.1771 84.418C37.5224 84.2313 37.7977 83.9467 38.0031 83.564C38.2177 83.1813 38.3251 82.7053 38.3251 82.136C38.3251 81.576 38.2177 81.1047 38.0031 80.722C37.7977 80.33 37.5224 80.0407 37.1771 79.854C36.8317 79.6673 36.4537 79.574 36.0431 79.574ZM50.9035 78.16C51.8182 78.16 52.5462 78.4493 53.0875 79.028C53.6382 79.6067 53.9135 80.4327 53.9135 81.506V86H52.3175V81.674C52.3175 81.002 52.1495 80.484 51.8135 80.12C51.4775 79.7467 51.0155 79.56 50.4275 79.56C49.8022 79.56 49.3028 79.7607 48.9295 80.162C48.5655 80.554 48.3835 81.1327 48.3835 81.898V86H46.7875V81.674C46.7875 81.002 46.6195 80.484 46.2835 80.12C45.9475 79.7467 45.4855 79.56 44.8975 79.56C44.2722 79.56 43.7728 79.7607 43.3995 80.162C43.0355 80.554 42.8535 81.1327 42.8535 81.898V86H41.2575V78.286H42.8535V79.896C43.0495 79.336 43.3762 78.9067 43.8335 78.608C44.2908 78.3093 44.8275 78.16 45.4435 78.16C46.0875 78.16 46.6428 78.3187 47.1095 78.636C47.5855 78.9533 47.9308 79.4107 48.1455 80.008C48.3695 79.4293 48.7288 78.9767 49.2235 78.65C49.7182 78.3233 50.2782 78.16 50.9035 78.16ZM62.705 81.772C62.705 82.0333 62.6863 82.262 62.649 82.458H56.713C56.741 83.2513 56.9603 83.8393 57.371 84.222C57.7817 84.6047 58.2903 84.796 58.897 84.796C59.429 84.796 59.877 84.6607 60.241 84.39C60.6143 84.1193 60.843 83.76 60.927 83.312H62.635C62.5323 83.8533 62.3177 84.334 61.991 84.754C61.6643 85.174 61.2397 85.5053 60.717 85.748C60.1943 85.9813 59.611 86.098 58.967 86.098C58.2203 86.098 57.5577 85.9393 56.979 85.622C56.4097 85.3047 55.9617 84.8473 55.635 84.25C55.3083 83.6527 55.145 82.948 55.145 82.136C55.145 81.3333 55.3083 80.6333 55.635 80.036C55.9617 79.4387 56.4097 78.9813 56.979 78.664C57.5577 78.3467 58.2203 78.188 58.967 78.188C59.723 78.188 60.381 78.3467 60.941 78.664C61.5103 78.972 61.9443 79.4013 62.243 79.952C62.551 80.4933 62.705 81.1 62.705 81.772ZM61.095 81.73C61.1137 81.226 61.025 80.806 60.829 80.47C60.6423 80.1247 60.381 79.8727 60.045 79.714C59.7183 79.546 59.359 79.462 58.967 79.462C58.3417 79.462 57.819 79.6533 57.399 80.036C56.979 80.4187 56.7503 80.9833 56.713 81.73H61.095Z" fill="#C8161D"/>
<path d="M118.005 76.116V77.404H113.763V80.47H117.263V81.702H113.763V86H112.167V76.116H118.005ZM122.281 78.188C122.981 78.188 123.578 78.3607 124.073 78.706C124.568 79.0513 124.918 79.5087 125.123 80.078V78.286H126.719V86H125.123V84.208C124.918 84.7773 124.568 85.2347 124.073 85.58C123.578 85.9253 122.981 86.098 122.281 86.098C121.609 86.098 121.007 85.9393 120.475 85.622C119.952 85.3047 119.542 84.8473 119.243 84.25C118.944 83.6527 118.795 82.948 118.795 82.136C118.795 81.3333 118.944 80.6333 119.243 80.036C119.542 79.4387 119.952 78.9813 120.475 78.664C121.007 78.3467 121.609 78.188 122.281 78.188ZM122.771 79.588C122.062 79.588 121.492 79.8167 121.063 80.274C120.643 80.722 120.433 81.3427 120.433 82.136C120.433 82.9293 120.643 83.5547 121.063 84.012C121.492 84.46 122.062 84.684 122.771 84.684C123.219 84.684 123.62 84.5813 123.975 84.376C124.33 84.1613 124.61 83.8627 124.815 83.48C125.02 83.0973 125.123 82.6493 125.123 82.136C125.123 81.632 125.02 81.1887 124.815 80.806C124.61 80.414 124.33 80.1153 123.975 79.91C123.62 79.6953 123.219 79.588 122.771 79.588ZM131.558 84.348L133.742 78.286H135.45L132.51 86H130.578L127.638 78.286H129.346L131.558 84.348ZM139.913 78.188C140.659 78.188 141.331 78.3467 141.929 78.664C142.526 78.9813 142.993 79.4387 143.329 80.036C143.665 80.6333 143.833 81.3333 143.833 82.136C143.833 82.948 143.665 83.6527 143.329 84.25C142.993 84.8473 142.526 85.3047 141.929 85.622C141.331 85.9393 140.659 86.098 139.913 86.098C139.166 86.098 138.494 85.9393 137.897 85.622C137.309 85.3047 136.842 84.8473 136.497 84.25C136.161 83.6433 135.993 82.9387 135.993 82.136C135.993 81.3333 136.161 80.6333 136.497 80.036C136.842 79.4387 137.309 78.9813 137.897 78.664C138.494 78.3467 139.166 78.188 139.913 78.188ZM139.913 79.574C139.502 79.574 139.124 79.6673 138.779 79.854C138.433 80.0407 138.153 80.33 137.939 80.722C137.733 81.1047 137.631 81.576 137.631 82.136C137.631 82.7053 137.733 83.1813 137.939 83.564C138.153 83.9467 138.433 84.2313 138.779 84.418C139.124 84.6047 139.502 84.698 139.913 84.698C140.323 84.698 140.701 84.6047 141.047 84.418C141.392 84.2313 141.667 83.9467 141.873 83.564C142.087 83.1813 142.195 82.7053 142.195 82.136C142.195 81.576 142.087 81.1047 141.873 80.722C141.667 80.33 141.392 80.0407 141.047 79.854C140.701 79.6673 140.323 79.574 139.913 79.574ZM146.723 79.798C146.984 79.294 147.358 78.8973 147.843 78.608C148.328 78.3093 148.888 78.16 149.523 78.16V79.896H149.047C148.347 79.896 147.782 80.0687 147.353 80.414C146.933 80.75 146.723 81.31 146.723 82.094V86H145.127V78.286H146.723V79.798ZM150.255 76.046C150.255 75.7753 150.348 75.5513 150.535 75.374C150.722 75.1967 150.969 75.108 151.277 75.108C151.585 75.108 151.832 75.1967 152.019 75.374C152.215 75.5513 152.313 75.7753 152.313 76.046C152.313 76.3167 152.215 76.536 152.019 76.704C151.832 76.872 151.585 76.956 151.277 76.956C150.969 76.956 150.722 76.872 150.535 76.704C150.348 76.536 150.255 76.3167 150.255 76.046ZM152.075 78.286V86H150.479V78.286H152.075ZM157.644 84.614V86H156.664C155.843 86 155.218 85.804 154.788 85.412C154.368 85.0107 154.158 84.348 154.158 83.424V79.644H153.052V78.286H154.158V76.368H155.768V78.286H157.63V79.644H155.768V83.452C155.768 83.8907 155.848 84.194 156.006 84.362C156.174 84.53 156.464 84.614 156.874 84.614H157.644ZM166.067 81.772C166.067 82.0333 166.049 82.262 166.011 82.458H160.075C160.103 83.2513 160.323 83.8393 160.733 84.222C161.144 84.6047 161.653 84.796 162.259 84.796C162.791 84.796 163.239 84.6607 163.603 84.39C163.977 84.1193 164.205 83.76 164.289 83.312H165.997C165.895 83.8533 165.68 84.334 165.353 84.754C165.027 85.174 164.602 85.5053 164.079 85.748C163.557 85.9813 162.973 86.098 162.329 86.098C161.583 86.098 160.92 85.9393 160.341 85.622C159.772 85.3047 159.324 84.8473 158.997 84.25C158.671 83.6527 158.507 82.948 158.507 82.136C158.507 81.3333 158.671 80.6333 158.997 80.036C159.324 79.4387 159.772 78.9813 160.341 78.664C160.92 78.3467 161.583 78.188 162.329 78.188C163.085 78.188 163.743 78.3467 164.303 78.664C164.873 78.972 165.307 79.4013 165.605 79.952C165.913 80.4933 166.067 81.1 166.067 81.772ZM164.457 81.73C164.476 81.226 164.387 80.806 164.191 80.47C164.005 80.1247 163.743 79.8727 163.407 79.714C163.081 79.546 162.721 79.462 162.329 79.462C161.704 79.462 161.181 79.6533 160.761 80.036C160.341 80.4187 160.113 80.9833 160.075 81.73H164.457ZM169.902 78.188C170.808 78.188 171.531 78.4213 172.072 78.888C172.623 79.3453 172.959 79.9613 173.08 80.736H171.568C171.503 80.316 171.321 79.98 171.022 79.728C170.733 79.4667 170.346 79.336 169.86 79.336C169.459 79.336 169.146 79.434 168.922 79.63C168.708 79.8167 168.6 80.0733 168.6 80.4C168.6 80.6427 168.68 80.8387 168.838 80.988C168.997 81.1373 169.193 81.254 169.426 81.338C169.669 81.422 170.01 81.5153 170.448 81.618C171.027 81.7487 171.494 81.884 171.848 82.024C172.212 82.164 172.52 82.388 172.772 82.696C173.034 82.9947 173.164 83.4053 173.164 83.928C173.164 84.572 172.917 85.0947 172.422 85.496C171.937 85.8973 171.279 86.098 170.448 86.098C169.487 86.098 168.708 85.874 168.11 85.426C167.522 84.978 167.168 84.3527 167.046 83.55H168.6C168.647 83.97 168.834 84.3107 169.16 84.572C169.487 84.8333 169.916 84.964 170.448 84.964C170.831 84.964 171.13 84.866 171.344 84.67C171.568 84.4647 171.68 84.208 171.68 83.9C171.68 83.6293 171.596 83.4147 171.428 83.256C171.26 83.0973 171.05 82.976 170.798 82.892C170.546 82.7987 170.201 82.7053 169.762 82.612C169.202 82.4813 168.745 82.3507 168.39 82.22C168.045 82.0893 167.746 81.8793 167.494 81.59C167.252 81.2913 167.13 80.89 167.13 80.386C167.13 79.7327 167.373 79.2053 167.858 78.804C168.353 78.3933 169.034 78.188 169.902 78.188Z" fill="#667C8A"/>
<path d="M134.5 57C132.625 54.5 133.25 50.75 136.375 49.5C139.5 48.25 141.375 50.75 142 52C142.625 50.75 145.125 48.25 148.25 49.5C151.375 50.75 151.375 54.5 149.5 57C147.625 59.5 142 64.5 142 64.5C142 64.5 136.375 59.5 134.5 57Z" stroke="#667C8A" stroke-width="1.5" stroke-linecap="round" stroke-linejoin="round"/>
<path d="M226.86 83.858H222.688L221.932 86H220.224L223.864 76.27H225.698L229.324 86H227.616L226.86 83.858ZM226.412 82.626L224.774 78.006L223.136 82.626H226.412ZM233.699 78.188C234.698 78.188 235.524 78.454 236.177 78.986C236.83 79.5087 237.236 80.2227 237.395 81.128H235.701C235.608 80.6427 235.379 80.2647 235.015 79.994C234.66 79.714 234.212 79.574 233.671 79.574C233.055 79.574 232.542 79.7933 232.131 80.232C231.72 80.6613 231.515 81.296 231.515 82.136C231.515 82.976 231.72 83.6153 232.131 84.054C232.542 84.4927 233.055 84.712 233.671 84.712C234.212 84.712 234.66 84.572 235.015 84.292C235.379 84.012 235.608 83.6293 235.701 83.144H237.395C237.236 84.0493 236.83 84.768 236.177 85.3C235.524 85.832 234.698 86.098 233.699 86.098C232.952 86.098 232.29 85.9393 231.711 85.622C231.142 85.3047 230.694 84.8473 230.367 84.25C230.04 83.6527 229.877 82.948 229.877 82.136C229.877 81.3333 230.04 80.6333 230.367 80.036C230.694 79.4387 231.142 78.9813 231.711 78.664C232.29 78.3467 232.952 78.188 233.699 78.188ZM242.127 78.188C243.126 78.188 243.952 78.454 244.605 78.986C245.258 79.5087 245.664 80.2227 245.823 81.128H244.129C244.036 80.6427 243.807 80.2647 243.443 79.994C243.088 79.714 242.64 79.574 242.099 79.574C241.483 79.574 240.97 79.7933 240.559 80.232C240.148 80.6613 239.943 81.296 239.943 82.136C239.943 82.976 240.148 83.6153 240.559 84.054C240.97 84.4927 241.483 84.712 242.099 84.712C242.64 84.712 243.088 84.572 243.443 84.292C243.807 84.012 244.036 83.6293 244.129 83.144H245.823C245.664 84.0493 245.258 84.768 244.605 85.3C243.952 85.832 243.126 86.098 242.127 86.098C241.38 86.098 240.718 85.9393 240.139 85.622C239.57 85.3047 239.122 84.8473 238.795 84.25C238.468 83.6527 238.305 82.948 238.305 82.136C238.305 81.3333 238.468 80.6333 238.795 80.036C239.122 79.4387 239.57 78.9813 240.139 78.664C240.718 78.3467 241.38 78.188 242.127 78.188ZM250.653 78.188C251.4 78.188 252.072 78.3467 252.669 78.664C253.266 78.9813 253.733 79.4387 254.069 80.036C254.405 80.6333 254.573 81.3333 254.573 82.136C254.573 82.948 254.405 83.6527 254.069 84.25C253.733 84.8473 253.266 85.3047 252.669 85.622C252.072 85.9393 251.4 86.098 250.653 86.098C249.906 86.098 249.234 85.9393 248.637 85.622C248.049 85.3047 247.582 84.8473 247.237 84.25C246.901 83.6433 246.733 82.9387 246.733 82.136C246.733 81.3333 246.901 80.6333 247.237 80.036C247.582 79.4387 248.049 78.9813 248.637 78.664C249.234 78.3467 249.906 78.188 250.653 78.188ZM250.653 79.574C250.242 79.574 249.864 79.6673 249.519 79.854C249.174 80.0407 248.894 80.33 248.679 80.722C248.474 81.1047 248.371 81.576 248.371 82.136C248.371 82.7053 248.474 83.1813 248.679 83.564C248.894 83.9467 249.174 84.2313 249.519 84.418C249.864 84.6047 250.242 84.698 250.653 84.698C251.064 84.698 251.442 84.6047 251.787 84.418C252.132 84.2313 252.408 83.9467 252.613 83.564C252.828 83.1813 252.935 82.7053 252.935 82.136C252.935 81.576 252.828 81.1047 252.613 80.722C252.408 80.33 252.132 80.0407 251.787 79.854C251.442 79.6673 251.064 79.574 250.653 79.574ZM262.979 78.286V86H261.369V84.32C261.173 84.8893 260.833 85.3327 260.347 85.65C259.862 85.958 259.297 86.112 258.653 86.112C257.757 86.112 257.039 85.8227 256.497 85.244C255.956 84.6653 255.685 83.8393 255.685 82.766V78.286H257.281V82.598C257.281 83.298 257.459 83.8393 257.813 84.222C258.168 84.5953 258.653 84.782 259.269 84.782C259.904 84.782 260.413 84.5767 260.795 84.166C261.178 83.7553 261.369 83.158 261.369 82.374V78.286H262.979ZM268.963 78.16C269.859 78.16 270.577 78.4493 271.119 79.028C271.66 79.6067 271.931 80.4327 271.931 81.506V86H270.335V81.674C270.335 80.9833 270.157 80.4513 269.803 80.078C269.448 79.6953 268.963 79.504 268.347 79.504C267.712 79.504 267.203 79.7093 266.821 80.12C266.438 80.5213 266.247 81.114 266.247 81.898V86H264.651V78.286H266.247V79.98C266.452 79.4013 266.797 78.9533 267.283 78.636C267.768 78.3187 268.328 78.16 268.963 78.16ZM277.435 84.614V86H276.455C275.634 86 275.009 85.804 274.579 85.412C274.159 85.0107 273.949 84.348 273.949 83.424V79.644H272.843V78.286H273.949V76.368H275.559V78.286H277.421V79.644H275.559V83.452C275.559 83.8907 275.639 84.194 275.797 84.362C275.965 84.53 276.255 84.614 276.665 84.614H277.435Z" fill="#667C8A"/>
<path d="M249 49.3977C248.277 49.3977 247.661 49.6511 247.152 50.1579C246.644 50.6647 246.39 51.2788 246.39 52C246.39 52.7212 246.644 53.3353 247.152 53.8421C247.661 54.3489 248.277 54.6023 249 54.6023C249.723 54.6023 250.339 54.3489 250.848 53.8421C251.356 53.3353 251.61 52.7212 251.61 52C251.61 51.2788 251.356 50.6647 250.848 50.1579C250.339 49.6511 249.723 49.3977 249 49.3977ZM249.029 60.6257C247.309 60.6257 245.608 60.9474 243.927 61.5906C242.245 62.2339 241.405 62.7895 241.405 63.2573V64.6023H256.654V63.2573C256.654 62.7895 255.813 62.2339 254.132 61.5906C252.451 60.9474 250.75 60.6257 249.029 60.6257ZM249 47C250.388 47 251.571 47.4873 252.548 48.462C253.526 49.4366 254.015 50.616 254.015 52C254.015 53.384 253.526 54.5634 252.548 55.538C251.571 56.5127 250.388 57 249 57C247.612 57 246.429 56.5127 245.452 55.538C244.474 54.5634 243.985 53.384 243.985 52C243.985 50.616 244.474 49.4366 245.452 48.462C246.429 47.4873 247.612 47 249 47ZM249 58.2281C250.232 58.2281 251.59 58.4035 253.076 58.7544C254.562 59.1053 255.921 59.6803 257.152 60.4795C258.384 61.2788 259 62.2047 259 63.2573V67H239V63.2573C239 62.2047 239.616 61.2788 240.848 60.4795C242.079 59.6803 243.438 59.1053 244.924 58.7544C246.41 58.4035 247.768 58.2281 249 58.2281Z" fill="#667C8A"/>
<path d="M329.214 76.27V86H327.604V78.706L324.79 86H323.39L320.562 78.706V86H318.966V76.27H320.898L324.118 84.04L327.282 76.27H329.214ZM334.422 78.188C335.169 78.188 335.841 78.3467 336.438 78.664C337.035 78.9813 337.502 79.4387 337.838 80.036C338.174 80.6333 338.342 81.3333 338.342 82.136C338.342 82.948 338.174 83.6527 337.838 84.25C337.502 84.8473 337.035 85.3047 336.438 85.622C335.841 85.9393 335.169 86.098 334.422 86.098C333.675 86.098 333.003 85.9393 332.406 85.622C331.818 85.3047 331.351 84.8473 331.006 84.25C330.67 83.6433 330.502 82.9387 330.502 82.136C330.502 81.3333 330.67 80.6333 331.006 80.036C331.351 79.4387 331.818 78.9813 332.406 78.664C333.003 78.3467 333.675 78.188 334.422 78.188ZM334.422 79.574C334.011 79.574 333.633 79.6673 333.288 79.854C332.943 80.0407 332.663 80.33 332.448 80.722C332.243 81.1047 332.14 81.576 332.14 82.136C332.14 82.7053 332.243 83.1813 332.448 83.564C332.663 83.9467 332.943 84.2313 333.288 84.418C333.633 84.6047 334.011 84.698 334.422 84.698C334.833 84.698 335.211 84.6047 335.556 84.418C335.901 84.2313 336.177 83.9467 336.382 83.564C336.597 83.1813 336.704 82.7053 336.704 82.136C336.704 81.576 336.597 81.1047 336.382 80.722C336.177 80.33 335.901 80.0407 335.556 79.854C335.211 79.6673 334.833 79.574 334.422 79.574ZM341.232 79.798C341.494 79.294 341.867 78.8973 342.352 78.608C342.838 78.3093 343.398 78.16 344.032 78.16V79.896H343.556C342.856 79.896 342.292 80.0687 341.862 80.414C341.442 80.75 341.232 81.31 341.232 82.094V86H339.636V78.286H341.232V79.798ZM352.156 81.772C352.156 82.0333 352.138 82.262 352.1 82.458H346.164C346.192 83.2513 346.412 83.8393 346.822 84.222C347.233 84.6047 347.742 84.796 348.348 84.796C348.88 84.796 349.328 84.6607 349.692 84.39C350.066 84.1193 350.294 83.76 350.378 83.312H352.086C351.984 83.8533 351.769 84.334 351.442 84.754C351.116 85.174 350.691 85.5053 350.168 85.748C349.646 85.9813 349.062 86.098 348.418 86.098C347.672 86.098 347.009 85.9393 346.43 85.622C345.861 85.3047 345.413 84.8473 345.086 84.25C344.76 83.6527 344.596 82.948 344.596 82.136C344.596 81.3333 344.76 80.6333 345.086 80.036C345.413 79.4387 345.861 78.9813 346.43 78.664C347.009 78.3467 347.672 78.188 348.418 78.188C349.174 78.188 349.832 78.3467 350.392 78.664C350.962 78.972 351.396 79.4013 351.694 79.952C352.002 80.4933 352.156 81.1 352.156 81.772ZM350.546 81.73C350.565 81.226 350.476 80.806 350.28 80.47C350.094 80.1247 349.832 79.8727 349.496 79.714C349.17 79.546 348.81 79.462 348.418 79.462C347.793 79.462 347.27 79.6533 346.85 80.036C346.43 80.4187 346.202 80.9833 346.164 81.73H350.546Z" fill="#667C8A"/>
<path d="M341 58.5C341 57.837 341.263 57.2011 341.732 56.7322C342.201 56.2634 342.837 56 343.5 56C344.163 56 344.799 56.2634 345.268 56.7322C345.737 57.2011 346 57.837 346 58.5C346 59.163 345.737 59.7989 345.268 60.2678C344.799 60.7366 344.163 61 343.5 61C342.837 61 342.201 60.7366 341.732 60.2678C341.263 59.7989 341 59.163 341 58.5ZM333.5 58.5C333.5 57.837 333.763 57.2011 334.232 56.7322C334.701 56.2634 335.337 56 336 56C336.663 56 337.299 56.2634 337.768 56.7322C338.237 57.2011 338.5 57.837 338.5 58.5C338.5 59.163 338.237 59.7989 337.768 60.2678C337.299 60.7366 336.663 61 336 61C335.337 61 334.701 60.7366 334.232 60.2678C333.763 59.7989 333.5 59.163 333.5 58.5ZM326 58.5C326 57.837 326.263 57.2011 326.732 56.7322C327.201 56.2634 327.837 56 328.5 56C329.163 56 329.799 56.2634 330.268 56.7322C330.737 57.2011 331 57.837 331 58.5C331 59.163 330.737 59.7989 330.268 60.2678C329.799 60.7366 329.163 61 328.5 61C327.837 61 327.201 60.7366 326.732 60.2678C326.263 59.7989 326 59.163 326 58.5Z" fill="#667C8A"/>
<defs>
<filter id="filter0_dd" x="-36" y="0" width="447" height="138" filterUnits="userSpaceOnUse" color-interpolation-filters="sRGB">
<feFlood flood-opacity="0" result="BackgroundImageFix"/>
<feColorMatrix in="SourceAlpha" type="matrix" values="0 0 0 0 0 0 0 0 0 0 0 0 0 0 0 0 0 0 127 0" result="hardAlpha"/>
<feOffset dx="6" dy="6"/>
<feGaussianBlur stdDeviation="15"/>
<feColorMatrix type="matrix" values="0 0 0 0 0.2618 0 0 0 0 0.36346 0 0 0 0 0.4182 0 0 0 0.25 0"/>
<feBlend mode="normal" in2="BackgroundImageFix" result="effect1_dropShadow"/>
<feColorMatrix in="SourceAlpha" type="matrix" values="0 0 0 0 0 0 0 0 0 0 0 0 0 0 0 0 0 0 127 0" result="hardAlpha"/>
<feOffset dx="-6" dy="-6"/>
<feGaussianBlur stdDeviation="15"/>
<feColorMatrix type="matrix" values="0 0 0 0 0.262745 0 0 0 0 0.364706 0 0 0 0 0.419608 0 0 0 0.25 0"/>
<feBlend mode="normal" in2="effect1_dropShadow" result="effect2_dropShadow"/>
<feBlend mode="normal" in="SourceGraphic" in2="effect2_dropShadow" result="shape"/>
</filter>
</defs>
</svg>
